
why be the same as everyone else when YOU can be UNiQUE          



Format                                   : AVI
Format/Info                              : Audio Video Interleave
File size                                : 1.43 GiB
Duration                                 : 2h 17mn
Overall bit rate                         : 1 487 Kbps
Writing application                      : VirtualDubMod 1.5.10.2 (build 2540/release)
Writing library                          : VirtualDub build 34807/release

Video
ID                                       : 0
Format                                   : MPEG-4 Visual
Format profile                           : Advanced Simple@L5
Format settings, BVOP                    : 2
Format settings, QPel                    : No
Format settings, GMC                     : No warppoints
Format settings, Matrix                  : Default (H.263)
Muxing mode                              : Packed bitstream
Codec ID                                 : XVID
Codec ID/Hint                            : XviD
Duration                                 : 2h 17mn
Bit rate                                 : 1 349 Kbps
Width                                    : 640 pixels
Height                                   : 272 pixels
Display aspect ratio                     : 2.35:1
Frame rate                               : 25.000 fps
Color space                              : YUV
Chroma subsampling                       : 4:2:0
Bit depth                                : 8 bits
Scan type                                : Progressive
Compression mode                         : Lossy
Bits/(Pixel*Frame)                       : 0.310
Stream size                              : 1.29 GiB (91%)
Writing library                          : XviD 64

Audio
ID                                       : 1
Format                                   : MPEG Audio
Format version                           : Version 1
Format profile                           : Layer 3
Codec ID                                 : 55
Codec ID/Hint                            : MP3
Duration                                 : 2h 17mn
Bit rate mode                            : Constant
Bit rate                                 : 128 Kbps
Channel(s)                               : 2 channels
Sampling rate                            : 48.0 KHz
Compression mode                         : Lossy
Stream size                              : 126 MiB (9%)
Alignment                                : Split accross interleaves
Interleave, duration                     : 40 ms (1.00 video frame)
Interleave, preload duration             : 500 ms




 
http://www.imdb.com/title/tt1074638/




Ratings: 8.1/10 from 81,973 users   Metascore: 81/100
Reviews: 586 user | 269 critic | 43 from Metacritic.com

Bond's loyalty to M is tested as her past comes back to haunt her. As MI6 comes under attack, 007 must track down and destroy the threat, no matter how personal the cost.

Director:
Sam Mendes
Writers:
Neal Purvis, Robert Wade, and 2 more credits ┬╗
Stars:
Daniel Craig, Javier Bardem and Naomie Harris | See full cast and crew




Source Used




Video............iLG...........Thanks


Audio..............Jiinxy...............Thanks bro





Cant say did loads to vid but sharpened it up ,rgb and contrast and for those on about missing minutes


Enjoy
 
http://www.shotpix.com/images/22949177672118816547.png
 
http://www.shotpix.com/images/30349874983160362746.png
 
http://www.shotpix.com/images/91622989196341523699.png
 
http://www.shotpix.com/images/42594152709395590951.png